<svg version="1.0" xmlns="http://www.w3.org/2000/svg"
   width="420pt" height="125pt" viewBox="15 45 470 100"
   preserveAspectRatio="xMidYMid meet">
  <metadata>
  Created by potrace 1.16, written by Peter Selinger 2001-2019
  </metadata>
  <g transform="translate(0.000000,156.000000) scale(0.100000,-0.100000)"
  fill="#005b54" stroke="none">
  <path d="M681 1164 c-118 -68 -220 -129 -228 -135 -10 -9 -13 -68 -13 -279 0
  -305 -11 -270 110 -340 41 -24 138 -79 215 -123 192 -111 175 -112 436 38 112
  65 216 127 232 137 l27 19 0 263 c0 195 -3 266 -12 278 -12 14 -210 132 -389
  231 -111 62 -124 59 -378 -89z m455 19 c254 -147 289 -169 291 -183 2 -10 -76
  -60 -223 -144 -204 -116 -229 -128 -264 -123 -23 3 -107 45 -216 108 -99 56
  -196 112 -216 123 -21 12 -40 27 -43 34 -2 7 17 24 48 42 29 16 129 74 222
  129 216 127 205 127 401 14z m-475 -335 c254 -146 237 -138 289 -138 39 0 71
  15 255 121 116 67 216 123 223 126 9 4 12 -24 12 -120 l0 -125 -227 -131
  c-175 -100 -236 -131 -263 -131 -37 0 -49 6 -352 182 l-138 80 0 124 c0 68 2
  124 4 124 2 0 91 -50 197 -112z"/>
  <path d="M822 1173 l-42 -25 137 -80 c168 -98 170 -99 147 -123 -14 -13 -27
  -16 -62 -11 -35 5 -53 1 -83 -16 -22 -12 -39 -25 -39 -29 0 -14 75 -33 130
  -33 70 0 122 18 166 56 46 40 46 78 2 112 -39 29 -294 176 -305 176 -4 -1 -27
  -12 -51 -27z"/>
  </g>
  </svg>