<svg width="160" height="170" viewBox="0 0 160 170" fill="none" xmlns="http://www.w3.org/2000/svg">
<path d="M155.676 130.101L90.5715 167.72C87.856 169.31 84.1471 170.038 80.3058 169.906C76.1333 169.773 71.8283 168.713 68.3843 166.793L6.45888 131.028C4.73689 130.035 3.41228 128.909 2.55128 127.783C1.62406 126.591 1.16045 125.399 1.02798 124.207C1.02798 123.942 1.02798 123.743 1.02798 123.478V87.7137C1.16045 90.0979 3.0149 92.6147 6.45888 94.6016L68.3843 130.366C74.9411 134.141 84.8757 134.539 90.5715 131.293L155.676 93.6744C158.127 92.2836 159.385 90.3629 159.517 88.376V124.207C159.65 126.392 158.391 128.578 155.676 130.101Z" fill="#243447"/>
<path d="M154.828 93.499L154.842 93.4913C156.988 92.3052 157.778 90.8536 157.829 89.6107V47.8888L89.9722 46.9798L89.9717 46.9798L70.6284 46.7148L2.92662 45.7874L2.88931 45.7869L2.85206 45.7847C2.81284 45.7824 2.78805 45.7886 2.77069 45.7954C2.75125 45.8031 2.72816 45.8169 2.70438 45.8407C2.65269 45.8924 2.61808 45.9705 2.61808 46.0525V88.9036C2.78191 90.5356 4.07823 92.6203 7.22161 94.4338L7.22227 94.4341L69.1588 130.205L154.828 93.499ZM154.828 93.499L154.814 93.5069M154.828 93.499L154.814 93.5069M154.814 93.5069L89.6958 131.134L89.692 131.136M154.814 93.5069L89.692 131.136M89.692 131.136C87.202 132.584 83.6373 133.273 79.823 133.107M89.692 131.136L79.823 133.107M79.823 133.107C76.026 132.943 72.1714 131.939 69.1608 130.206L79.823 133.107ZM159.218 47.9074C159.215 47.9074 159.206 47.9075 159.191 47.9071L159.198 47.9072L159.209 47.9073H159.22L159.218 47.9074Z" fill="#FAFCFE" stroke="#243447" stroke-width="3.31222"/>
<path d="M154.72 50.4253L154.719 50.4255L89.6011 87.9861L89.5951 87.9895C87.1768 89.3955 83.6809 90.0798 79.907 89.9164C76.1535 89.7539 72.3526 88.761 69.3955 87.0589C69.3949 87.0585 69.3943 87.0582 69.3938 87.0579L7.45759 51.2873L7.45528 51.2859C4.46338 49.5633 3.22738 47.6292 3.04503 46.1704C2.88242 44.8695 3.49106 43.2982 5.85766 41.9498L5.86678 41.9445L70.985 4.38398L70.9909 4.38054C73.4092 2.97456 76.9052 2.2902 80.679 2.45361C84.4326 2.61614 88.2337 3.60913 91.1908 5.31133C91.1913 5.31161 91.1918 5.31189 91.1923 5.31217L153.128 41.0828L153.131 41.0841C156.117 42.8038 157.338 44.7346 157.515 46.1927C157.675 47.504 157.055 49.079 154.72 50.4253Z" fill="#FAFCFE" stroke="#243447" stroke-width="3.97466" stroke-linecap="round" stroke-linejoin="round"/>
<path d="M53.4941 23.3969L68.7965 14.5202L111.657 39.2956C125.17 47.1124 124.111 55.9891 111.657 63.2098C98.739 70.6954 82.1779 71.5566 68.0016 63.3423L83.2378 54.5318C88.6036 57.6453 93.5719 57.7777 97.4803 55.5254C101.19 53.4056 100.991 50.8221 96.2879 48.1061L53.4941 23.3969Z" fill="#243447"/>
</svg>
