<?xml version="1.0" standalone="no"?>
<!DOCTYPE svg PUBLIC "-//W3C//DTD SVG 20010904//EN"
 "http://www.w3.org/TR/2001/REC-SVG-20010904/DTD/svg10.dtd">
<svg version="1.0" xmlns="http://www.w3.org/2000/svg"
 width="461.000000pt" height="156.000000pt" viewBox="0 0 461.000000 156.000000"
 preserveAspectRatio="xMidYMid meet">
<metadata>
Created by potrace 1.16, written by Peter Selinger 2001-2019
</metadata>
<g transform="translate(0.000000,156.000000) scale(0.100000,-0.100000)"
fill="#000000" stroke="none">
<path d="M681 1164 c-118 -68 -220 -129 -228 -135 -10 -9 -13 -68 -13 -279 0
-305 -11 -270 110 -340 41 -24 138 -79 215 -123 192 -111 175 -112 436 38 112
65 216 127 232 137 l27 19 0 263 c0 195 -3 266 -12 278 -12 14 -210 132 -389
231 -111 62 -124 59 -378 -89z m455 19 c254 -147 289 -169 291 -183 2 -10 -76
-60 -223 -144 -204 -116 -229 -128 -264 -123 -23 3 -107 45 -216 108 -99 56
-196 112 -216 123 -21 12 -40 27 -43 34 -2 7 17 24 48 42 29 16 129 74 222
129 216 127 205 127 401 14z m-475 -335 c254 -146 237 -138 289 -138 39 0 71
15 255 121 116 67 216 123 223 126 9 4 12 -24 12 -120 l0 -125 -227 -131
c-175 -100 -236 -131 -263 -131 -37 0 -49 6 -352 182 l-138 80 0 124 c0 68 2
124 4 124 2 0 91 -50 197 -112z"/>
<path d="M822 1173 l-42 -25 137 -80 c168 -98 170 -99 147 -123 -14 -13 -27
-16 -62 -11 -35 5 -53 1 -83 -16 -22 -12 -39 -25 -39 -29 0 -14 75 -33 130
-33 70 0 122 18 166 56 46 40 46 78 2 112 -39 29 -294 176 -305 176 -4 -1 -27
-12 -51 -27z"/>
<path d="M1940 967 c0 -171 -8 -197 -60 -197 -30 0 -60 22 -60 45 0 13 -21 25
-46 25 -19 0 -18 -50 2 -79 18 -25 71 -51 105 -51 35 0 84 28 102 59 14 24 17
56 17 190 l0 161 -30 0 -30 0 0 -153z"/>
<path d="M2143 990 c-68 -41 -90 -119 -54 -192 30 -60 63 -82 127 -83 89 0
149 61 148 149 0 89 -57 146 -144 146 -27 0 -58 -8 -77 -20z m141 -61 c34 -41
35 -97 2 -136 -19 -22 -32 -28 -66 -28 -34 0 -47 6 -66 28 -54 63 -13 167 66
167 30 0 44 -6 64 -31z"/>
<path d="M2430 906 c0 -122 8 -149 52 -176 41 -25 64 -25 111 -1 29 15 37 16
37 5 0 -9 11 -14 29 -14 l30 0 -2 143 -2 142 -27 3 -28 3 0 -101 c0 -95 -1
-102 -26 -127 -20 -20 -31 -24 -57 -19 -50 10 -57 28 -57 143 l0 103 -30 0
-30 0 0 -104z"/>
<path d="M2767 1003 c-4 -3 -7 -69 -7 -145 l0 -138 30 0 30 0 0 85 c0 46 5 95
11 108 12 26 47 47 79 47 15 0 20 7 20 25 0 21 -5 25 -29 25 -15 0 -40 -9 -54
-20 -25 -20 -25 -20 -30 0 -5 19 -36 27 -50 13z"/>
<path d="M2980 865 l0 -145 24 0 c24 0 24 2 28 99 4 114 18 141 73 141 54 0
65 -23 65 -138 l0 -102 30 0 30 0 0 106 c0 109 -7 137 -44 166 -30 25 -97 23
-130 -3 l-26 -20 0 20 c0 16 -6 21 -25 21 l-25 0 0 -145z"/>
<path d="M3363 990 c-47 -28 -65 -62 -65 -122 -1 -73 22 -115 78 -140 58 -25
116 -17 156 22 15 16 28 33 28 39 0 19 -46 12 -65 -9 -18 -20 -66 -27 -100
-14 -16 6 -45 54 -45 74 0 6 40 10 110 10 107 0 110 1 110 23 -1 40 -37 105
-69 121 -41 22 -99 20 -138 -4z m130 -52 c34 -40 23 -48 -63 -48 -71 0 -79 2
-73 18 22 62 95 78 136 30z"/>
<path d="M3600 1001 c0 -19 103 -276 112 -279 31 -13 -26 -82 -67 -82 -18 0
-25 -5 -25 -20 0 -17 7 -20 44 -20 67 0 84 24 154 221 34 94 62 175 62 180 0
16 -49 9 -58 -8 -5 -10 -24 -62 -42 -116 -18 -54 -37 -94 -41 -90 -4 4 -25 55
-47 113 -35 94 -42 105 -65 108 -15 2 -27 -1 -27 -7z"/>
<path d="M3949 981 c-16 -16 -29 -39 -29 -50 0 -33 42 -70 100 -89 47 -15 55
-21 58 -45 3 -21 -2 -29 -19 -35 -34 -13 -69 -2 -81 24 -14 30 -58 34 -58 5 0
-56 83 -95 155 -71 101 33 80 131 -35 168 -57 18 -73 39 -50 67 18 21 54 18
75 -5 21 -23 65 -27 65 -6 0 7 -12 25 -26 40 -22 21 -36 26 -76 26 -41 0 -54
-5 -79 -29z"/>
<path d="M1760 418 c0 -112 2 -129 14 -119 11 9 20 9 35 2 31 -17 58 -13 85
11 36 33 39 105 6 138 -22 22 -79 27 -98 8 -9 -9 -12 -2 -12 34 0 32 -5 48
-15 52 -13 5 -15 -13 -15 -126z m114 17 c40 -40 23 -107 -29 -113 -35 -4 -55
18 -55 62 0 54 50 85 84 51z"/>
<path d="M2291 534 c-64 -27 -46 -103 30 -125 47 -15 70 -49 49 -74 -18 -22
-66 -19 -90 7 -22 24 -35 19 -26 -10 14 -44 94 -55 131 -17 43 42 24 94 -43
116 -63 20 -77 42 -46 73 21 22 50 20 73 -5 28 -31 47 -20 22 13 -25 31 -59
39 -100 22z"/>
<path d="M2468 428 c23 -105 45 -150 63 -131 4 5 17 44 29 88 12 44 25 84 28
89 3 5 18 -32 33 -83 15 -51 29 -95 32 -97 2 -3 11 -2 19 1 17 7 70 238 55
244 -15 6 -22 -13 -42 -111 -20 -101 -20 -101 -56 20 -30 103 -47 99 -84 -20
-15 -51 -29 -88 -31 -83 -2 6 -12 50 -22 100 -13 64 -22 91 -33 93 -14 2 -13
-13 9 -110z"/>
<path d="M2809 512 c-25 -23 -33 -38 -36 -78 -11 -109 77 -176 167 -129 26 13
50 42 50 59 0 14 -25 4 -46 -19 -44 -48 -123 -25 -140 40 -10 41 5 92 33 115
34 27 69 25 99 -5 14 -14 29 -25 34 -25 18 0 10 26 -13 48 -36 34 -107 31
-148 -6z"/>
<path d="M1950 460 c0 -14 51 -142 63 -157 12 -16 -17 -63 -38 -63 -8 0 -15
-4 -15 -10 0 -17 39 -11 59 9 10 10 32 56 48 102 46 128 46 129 29 129 -10 0
-23 -24 -37 -70 -13 -38 -26 -70 -29 -70 -3 0 -17 32 -30 70 -13 39 -30 70
-37 70 -7 0 -13 -4 -13 -10z"/>
</g>
</svg>
